<?xml version="1.0" encoding="utf-8"?>
<!-- Generator: Adobe Illustrator 27.5.0, SVG Export Plug-In . SVG Version: 6.00 Build 0)  -->
<svg version="1.1" xmlns="http://www.w3.org/2000/svg" xmlns:xlink="http://www.w3.org/1999/xlink" x="0px" y="0px"
	 viewBox="0 0 500 500" style="enable-background:new 0 0 500 500;" xml:space="preserve">
<g id="Background_Simple">
	<g>
		<path style="fill:#92E3A9;" d="M33.07,244.648c0,0,2.489,77.157,66.897,128.583c64.408,51.426,153.658,55.109,225.911,59.995
			c72.252,4.885,127.748-36.017,136.112-97.846c8.364-61.829-46.846-79.979-76.8-150.359
			c-29.954-70.381-27.289-93.516-90.67-136.803C231.139,4.93,131.99,31.51,80.006,105.667
			C28.022,179.826,33.07,244.648,33.07,244.648z"/>
		<path style="opacity:0.7;fill:#FFFFFF;" d="M33.07,244.648c0,0,2.489,77.157,66.897,128.583
			c64.408,51.426,153.658,55.109,225.911,59.995c72.252,4.885,127.748-36.017,136.112-97.846
			c8.364-61.829-46.846-79.979-76.8-150.359c-29.954-70.381-27.289-93.516-90.67-136.803C231.139,4.93,131.99,31.51,80.006,105.667
			C28.022,179.826,33.07,244.648,33.07,244.648z"/>
	</g>
</g>
<g id="Plants">
	<path style="fill:#8A8A8A;" d="M267.548,134.876c0,0,15.77,33.889,18.454,40.599c2.684,6.711-1.007,14.092-5.704,19.125
		c-4.697,5.033-8.053,6.375-9.059,7.046s-11.744,17.112-15.77,29.527c-4.026,12.415-5.704,22.816-17.783,26.507
		c-12.079,3.691-30.198-5.033-33.553-19.461s4.697-27.514,13.757-33.553c9.059-6.04,15.434-11.744,17.783-15.77
		c2.349-4.026,6.711-23.487,10.737-34.224C250.436,143.935,262.18,132.863,267.548,134.876z"/>
	<g>
		<path style="fill:#263238;" d="M28.5,276.821c2.257-0.325,6.542-3.117,6.545-3.119c0.044-0.029-2.698-2.265-2.887-2.387
			c-2.19-1.403-7.247-2.827-9.494-0.974c-1.619,1.335-1.505,3.713-0.075,5.129C24.051,276.916,26.577,277.098,28.5,276.821z"/>
		<path style="fill:#263238;" d="M70.277,255.557c0.053,0-1-3.378-1.091-3.583c-1.053-2.378-4.485-6.355-7.381-6.05
			c-2.087,0.22-3.304,2.266-2.892,4.236c0.421,2.013,2.427,3.558,4.184,4.388C65.159,255.522,70.273,255.557,70.277,255.557z"/>
		<path style="fill:#263238;" d="M71.702,287.101c-1.751,0.58-2.412,2.565-1.689,4.18c0.738,1.649,2.752,2.6,4.415,2.983
			c1.045,0.241,2.769,0.089,4.156-0.105v-3.952C76.945,288.447,73.837,286.394,71.702,287.101z"/>
		<path style="fill:#263238;" d="M78.584,313.638c-0.53-0.653-1.085-1.328-1.675-2.031c-0.79-0.945-1.654-1.939-2.549-2.951
			c0.205-0.248,1.362-1.668,2.275-3.129c0.531,0.178,1.224,0.289,1.95,0.358v-6.534c-0.354-0.275-0.717-0.531-1.089-0.741
			c-0.102-0.2-0.222-0.389-0.36-0.567c-1.088-1.395-3.151-1.742-4.484-0.467c-1.85,1.769-1.133,6.33-0.136,8.387
			c0.059,0.121,0.844,1.366,1.353,2.144c-0.368-0.412-0.721-0.815-1.106-1.234c-0.754-0.834-1.532-1.644-2.365-2.518
			c-0.417-0.408-0.839-0.82-1.264-1.236c-0.413-0.422-0.903-0.815-1.357-1.229c-1.073-0.936-2.206-1.833-3.368-2.712
			c0.728-0.663,3.282-3.052,3.971-4.622c0.686-1.563,1.126-3.746,0.244-5.323c-0.864-1.544-2.85-2.2-4.361-1.142
			c-2.097,1.468-2.079,6.085-1.405,8.269c0.042,0.136,0.702,1.649,1.08,2.473c-0.702-0.523-1.401-1.048-2.129-1.553
			c-2.1-1.46-4.272-2.871-6.432-4.289c-0.662-0.434-1.316-0.875-1.973-1.313c0.262-0.233,3.358-3.008,4.13-4.766
			c0.686-1.563,1.126-3.746,0.244-5.323c-0.864-1.544-2.851-2.2-4.362-1.142c-2.097,1.468-2.079,6.085-1.405,8.27
			c0.051,0.164,1.003,2.34,1.273,2.882c-1.446-0.966-2.877-1.942-4.25-2.962c-1.896-1.404-3.678-2.887-5.298-4.451
			c0.122-0.108,3.367-2.989,4.158-4.791c0.686-1.563,1.126-3.746,0.244-5.323c-0.864-1.545-2.851-2.2-4.361-1.142
			c-2.097,1.468-2.079,6.085-1.405,8.269c0.044,0.144,0.768,1.803,1.131,2.583c-0.066,0.046-0.054,0.038-0.12,0.083
			c-1.716-1.697-3.165-3.556-4.435-5.363c-0.738-1.046-1.384-2.086-1.99-3.112c0.659-0.474,3.649-2.677,4.539-4.22
			c0.854-1.479,1.531-3.599,0.827-5.264c-0.689-1.63-2.592-2.5-4.21-1.614c-2.246,1.229-2.735,5.82-2.305,8.065
			c0.023,0.122,0.398,1.337,0.684,2.218c-0.266-0.467-0.55-0.945-0.797-1.398c-0.93-1.698-1.676-3.31-2.326-4.743
			c-0.363-0.818-0.675-1.565-0.959-2.267c0.404-0.803,1.992-4.061,2.07-5.809c0.076-1.706-0.3-3.9-1.691-5.053
			c-1.363-1.129-3.452-1.024-4.48,0.508c-1.427,2.126,0.255,6.425,1.671,8.22c0.122,0.155,2.315,2.361,2.337,2.319
			c0,0,0.02-0.039,0.024-0.048c0.26,0.681,0.547,1.408,0.876,2.196c0.62,1.45,1.333,3.083,2.229,4.808
			c0.891,1.726,1.908,3.576,3.155,5.428c1.247,1.858,2.654,3.749,4.356,5.51c0.019,0.02,0.042,0.038,0.061,0.058
			c-0.657-0.361-2.53-1.307-2.682-1.363c-2.143-0.794-6.752-1.069-8.335,0.943c-1.14,1.45-0.597,3.47,0.897,4.419
			c1.526,0.968,3.729,0.65,5.328,0.052c1.804-0.675,4.757-3.626,4.991-3.861c1.636,1.662,3.45,3.235,5.373,4.725
			c1.099,0.854,2.232,1.679,3.378,2.492c-0.579-0.293-1.098-0.551-1.175-0.58c-2.144-0.794-6.752-1.069-8.335,0.943
			c-1.14,1.45-0.597,3.47,0.897,4.418c1.526,0.969,3.729,0.651,5.328,0.053c1.623-0.607,4.191-3.072,4.862-3.734
			c0.443,0.307,0.882,0.619,1.326,0.925c2.132,1.467,4.265,2.921,6.314,4.412c0.723,0.525,1.414,1.068,2.109,1.61
			c-0.514-0.26-0.95-0.475-1.02-0.501c-2.143-0.794-6.752-1.069-8.335,0.943c-1.14,1.45-0.597,3.47,0.897,4.418
			c1.526,0.968,3.729,0.65,5.328,0.052c1.549-0.579,3.94-2.833,4.741-3.615c0.694,0.576,1.391,1.151,2.038,1.74
			c0.433,0.412,0.878,0.779,1.289,1.218c0.416,0.426,0.829,0.846,1.237,1.263c0.757,0.832,1.543,1.686,2.261,2.516
			c0.504,0.573,0.973,1.13,1.448,1.688c-0.713-0.531-2.13-1.541-2.258-1.612c-1.998-1.11-6.512-2.08-8.381-0.331
			c-1.346,1.26-1.116,3.34,0.217,4.503c1.361,1.188,3.587,1.208,5.259,0.859c1.84-0.384,5.086-2.742,5.489-3.039
			c0.782,0.927,1.534,1.837,2.229,2.706c0.996,1.239,1.902,2.406,2.715,3.479h0.132V313.638z"/>
		<path style="fill:#263238;" d="M65.129,268.552c1.876,0.432,5.968-0.4,6.293-0.467c0.448,2.289,1.093,4.601,1.875,6.905
			c0.446,1.318,0.936,2.631,1.443,3.942c-0.321-0.564-0.612-1.065-0.66-1.131c-1.35-1.845-5.042-4.616-7.472-3.812
			c-1.751,0.58-2.412,2.565-1.689,4.18c0.738,1.65,2.751,2.6,4.415,2.983c1.688,0.389,5.191-0.25,6.115-0.432
			c0.2,0.501,0.394,1.003,0.597,1.503c0.866,2.145,1.73,4.281,2.538,6.406v-2.747c-0.564-1.335-1.136-2.67-1.709-4.005
			c-0.313-0.727-0.615-1.455-0.921-2.184c0.176-0.025,1.329-0.195,2.63-0.493v-6.614c-1.038,1.25-1.836,2.769-2.158,3.869
			c-0.048,0.165-0.454,2.505-0.528,3.106c-0.673-1.603-1.329-3.207-1.911-4.815c-0.806-2.217-1.475-4.437-1.964-6.635
			c0.162-0.023,4.457-0.636,6.111-1.702c0.149-0.096,0.3-0.203,0.45-0.313v-7.322c-0.106-0.009-0.208-0.031-0.318-0.028
			c-2.559,0.068-5.091,3.928-5.734,6.122c-0.042,0.144-0.353,1.926-0.481,2.777c-0.08,0.002-0.066,0.002-0.146,0.004
			c-0.495-2.361-0.677-4.711-0.74-6.919c-0.038-1.279-0.004-2.503,0.057-3.694c0.812-0.032,4.52-0.22,6.114-1.015
			c0.412-0.206,0.838-0.461,1.249-0.754v-6.793c-0.093-0.017-0.179-0.047-0.276-0.055c-2.551-0.214-5.492,3.346-6.372,5.455
			c-0.048,0.115-0.405,1.335-0.653,2.227c0.036-0.537,0.062-1.092,0.107-1.605c0.161-1.929,0.428-3.686,0.677-5.24
			c0.149-0.882,0.3-1.677,0.45-2.419c0.78-0.447,3.901-2.289,4.931-3.703c0.438-0.602,0.848-1.332,1.136-2.105v-3.624
			c-0.706-1.342-2.279-2.092-3.776-1.467c-2.362,0.986-3.332,5.5-3.141,7.778c0.017,0.197,0.629,3.246,0.67,3.223
			c0,0,0.038-0.021,0.047-0.027c-0.159,0.711-0.321,1.476-0.481,2.315c-0.283,1.551-0.589,3.307-0.793,5.24
			c-0.209,1.931-0.381,4.035-0.363,6.268c0.015,2.238,0.146,4.591,0.593,6.999c0.005,0.027,0.014,0.055,0.019,0.082
			c-0.35-0.663-1.389-2.486-1.485-2.617c-1.35-1.845-5.042-4.617-7.472-3.812c-1.751,0.58-2.412,2.565-1.689,4.18
			C61.452,267.218,63.465,268.169,65.129,268.552z"/>
	</g>
	<g>
		<path style="fill:#263238;" d="M444.911,110.263c-2.257-0.325-6.542-3.117-6.545-3.119c-0.044-0.029,2.698-2.265,2.887-2.387
			c2.19-1.403,7.247-2.827,9.494-0.974c1.619,1.335,1.505,3.713,0.075,5.129C449.36,110.358,446.834,110.54,444.911,110.263z"/>
		<path style="fill:#263238;" d="M403.134,88.999c-0.053,0,1-3.378,1.091-3.583c1.053-2.378,4.485-6.355,7.382-6.05
			c2.087,0.22,3.303,2.266,2.892,4.236c-0.421,2.013-2.427,3.558-4.184,4.388C408.252,88.964,403.138,88.999,403.134,88.999z"/>
		<path style="fill:#263238;" d="M401.709,120.544c1.751,0.58,2.412,2.565,1.689,4.18c-0.738,1.649-2.751,2.6-4.415,2.983
			c-1.045,0.241-2.769,0.089-4.156-0.105v-3.952C396.466,121.889,399.574,119.836,401.709,120.544z"/>
		<path style="fill:#263238;" d="M394.827,147.08c0.53-0.653,1.085-1.328,1.675-2.031c0.79-0.945,1.654-1.938,2.549-2.951
			c-0.205-0.248-1.362-1.668-2.275-3.129c-0.531,0.177-1.224,0.288-1.95,0.358v-6.534c0.354-0.275,0.717-0.531,1.089-0.741
			c0.102-0.2,0.222-0.389,0.36-0.567c1.088-1.396,3.151-1.742,4.484-0.467c1.85,1.769,1.133,6.33,0.136,8.387
			c-0.059,0.121-0.844,1.366-1.353,2.144c0.368-0.412,0.721-0.816,1.106-1.234c0.754-0.834,1.532-1.644,2.365-2.519
			c0.417-0.408,0.839-0.82,1.264-1.236c0.413-0.422,0.903-0.815,1.357-1.229c1.073-0.936,2.206-1.833,3.368-2.712
			c-0.728-0.663-3.282-3.052-3.971-4.622c-0.686-1.563-1.126-3.746-0.244-5.323c0.864-1.544,2.85-2.2,4.362-1.142
			c2.097,1.468,2.079,6.085,1.405,8.269c-0.042,0.136-0.702,1.649-1.08,2.473c0.702-0.523,1.401-1.048,2.128-1.553
			c2.1-1.46,4.272-2.871,6.432-4.289c0.662-0.434,1.316-0.874,1.973-1.313c-0.262-0.233-3.358-3.007-4.13-4.766
			c-0.686-1.563-1.126-3.746-0.244-5.323c0.864-1.544,2.851-2.2,4.362-1.142c2.097,1.468,2.079,6.085,1.406,8.27
			c-0.051,0.164-1.003,2.34-1.273,2.882c1.446-0.966,2.878-1.942,4.25-2.962c1.896-1.404,3.678-2.887,5.298-4.451
			c-0.122-0.108-3.367-2.989-4.158-4.791c-0.686-1.563-1.126-3.746-0.244-5.323c0.863-1.545,2.851-2.2,4.361-1.142
			c2.097,1.468,2.079,6.085,1.405,8.269c-0.044,0.144-0.768,1.803-1.131,2.583c0.066,0.046,0.054,0.038,0.12,0.084
			c1.716-1.697,3.165-3.556,4.435-5.364c0.738-1.045,1.384-2.086,1.99-3.112c-0.659-0.474-3.648-2.677-4.54-4.22
			c-0.854-1.479-1.53-3.599-0.827-5.264c0.689-1.63,2.592-2.5,4.21-1.614c2.246,1.229,2.735,5.82,2.305,8.065
			c-0.023,0.122-0.398,1.337-0.684,2.218c0.266-0.467,0.55-0.945,0.797-1.398c0.929-1.698,1.676-3.31,2.326-4.743
			c0.363-0.818,0.675-1.565,0.959-2.267c-0.404-0.803-1.992-4.061-2.07-5.809c-0.076-1.705,0.3-3.9,1.691-5.053
			c1.363-1.129,3.452-1.024,4.48,0.508c1.426,2.126-0.255,6.425-1.671,8.22c-0.123,0.155-2.315,2.361-2.337,2.319
			c0,0-0.02-0.039-0.024-0.048c-0.26,0.681-0.547,1.408-0.876,2.196c-0.62,1.45-1.333,3.083-2.229,4.808
			c-0.891,1.726-1.908,3.576-3.155,5.428c-1.247,1.858-2.654,3.749-4.356,5.51c-0.019,0.02-0.042,0.038-0.061,0.058
			c0.657-0.36,2.53-1.307,2.682-1.363c2.143-0.794,6.752-1.069,8.335,0.943c1.14,1.45,0.597,3.47-0.897,4.419
			c-1.526,0.968-3.729,0.651-5.328,0.053c-1.804-0.675-4.757-3.626-4.991-3.861c-1.636,1.662-3.45,3.235-5.373,4.725
			c-1.099,0.854-2.232,1.679-3.378,2.492c0.579-0.293,1.098-0.551,1.175-0.58c2.144-0.794,6.752-1.069,8.335,0.943
			c1.14,1.45,0.597,3.47-0.897,4.418c-1.526,0.969-3.729,0.651-5.328,0.053c-1.623-0.607-4.191-3.072-4.862-3.734
			c-0.443,0.307-0.882,0.619-1.326,0.925c-2.132,1.467-4.265,2.921-6.314,4.412c-0.723,0.525-1.414,1.068-2.109,1.61
			c0.514-0.26,0.95-0.475,1.02-0.501c2.143-0.794,6.752-1.069,8.335,0.943c1.14,1.45,0.597,3.47-0.897,4.418
			c-1.526,0.968-3.729,0.651-5.328,0.052c-1.549-0.579-3.94-2.833-4.741-3.615c-0.694,0.576-1.391,1.151-2.037,1.74
			c-0.433,0.412-0.878,0.779-1.289,1.218c-0.417,0.425-0.829,0.846-1.237,1.263c-0.757,0.832-1.543,1.686-2.261,2.516
			c-0.504,0.574-0.973,1.13-1.448,1.688c0.713-0.531,2.13-1.541,2.258-1.612c1.998-1.11,6.512-2.08,8.382-0.331
			c1.346,1.26,1.116,3.34-0.217,4.503c-1.362,1.188-3.587,1.208-5.259,0.859c-1.84-0.384-5.086-2.742-5.489-3.039
			c-0.782,0.927-1.534,1.837-2.229,2.706c-0.996,1.239-1.902,2.406-2.715,3.479h-0.132V147.08z"/>
		<path style="fill:#263238;" d="M408.283,101.994c-1.876,0.432-5.968-0.399-6.293-0.467c-0.448,2.289-1.093,4.601-1.875,6.905
			c-0.446,1.318-0.936,2.631-1.443,3.942c0.321-0.564,0.612-1.065,0.66-1.131c1.35-1.845,5.042-4.617,7.472-3.812
			c1.751,0.58,2.412,2.565,1.689,4.18c-0.738,1.65-2.751,2.6-4.415,2.983c-1.688,0.389-5.191-0.25-6.115-0.432
			c-0.2,0.501-0.394,1.003-0.597,1.503c-0.866,2.145-1.73,4.281-2.539,6.407v-2.747c0.564-1.335,1.136-2.67,1.709-4.005
			c0.313-0.727,0.615-1.455,0.921-2.184c-0.176-0.025-1.329-0.195-2.63-0.493v-6.614c1.038,1.25,1.836,2.769,2.158,3.869
			c0.048,0.165,0.454,2.505,0.528,3.106c0.673-1.603,1.329-3.207,1.911-4.815c0.806-2.217,1.475-4.437,1.964-6.635
			c-0.162-0.023-4.457-0.636-6.111-1.702c-0.149-0.096-0.3-0.203-0.451-0.313v-7.322c0.106-0.009,0.208-0.031,0.318-0.028
			c2.559,0.068,5.091,3.928,5.734,6.122c0.042,0.144,0.353,1.926,0.481,2.777c0.08,0.002,0.066,0.002,0.146,0.004
			c0.495-2.361,0.677-4.711,0.74-6.919c0.039-1.279,0.004-2.503-0.057-3.694c-0.812-0.032-4.52-0.22-6.114-1.015
			c-0.412-0.206-0.838-0.461-1.249-0.754v-6.793c0.093-0.017,0.179-0.047,0.276-0.055c2.551-0.214,5.492,3.346,6.372,5.455
			c0.048,0.115,0.405,1.335,0.653,2.227c-0.036-0.537-0.063-1.092-0.107-1.605c-0.161-1.929-0.428-3.686-0.677-5.24
			c-0.149-0.882-0.3-1.677-0.45-2.42c-0.78-0.447-3.901-2.289-4.931-3.703c-0.438-0.602-0.848-1.332-1.136-2.104v-3.624
			c0.706-1.342,2.279-2.092,3.776-1.467c2.362,0.986,3.332,5.5,3.141,7.778c-0.017,0.197-0.629,3.246-0.67,3.223
			c0,0-0.038-0.022-0.047-0.027c0.159,0.711,0.32,1.476,0.48,2.315c0.283,1.551,0.589,3.307,0.793,5.24
			c0.209,1.931,0.381,4.035,0.363,6.268c-0.015,2.238-0.146,4.591-0.594,6.999c-0.005,0.027-0.014,0.055-0.019,0.082
			c0.35-0.663,1.389-2.486,1.485-2.617c1.35-1.845,5.042-4.617,7.472-3.812c1.751,0.58,2.412,2.565,1.689,4.18
			C411.96,100.66,409.947,101.611,408.283,101.994z"/>
	</g>
</g>
<g id="Character_2">
	<g>
		<g>
			<path style="fill:#B0B0B0;" d="M347.12,112.871c-0.916-3.638-12.828-6.334-14.05-5.779c-0.234,0.106-0.522,0.928-0.834,2.182
				c-0.927-0.195-1.675-0.314-1.99-0.326c-1.219-0.045-2.19,6.386-2.19,6.386s-0.098,10.983,0.329,13.672l-22.04,38.505
				l-37.595-18.668c-2.807,10.857,15.295,28.799,15.295,28.799s24.935,7.836,29.378,5.449c4.443-2.387,22.975-52.45,22.975-52.45
				s3.25-2.582,4.972-4.47C343.091,124.283,348.035,116.509,347.12,112.871z"/>
			<g>
				<polyline style="fill:none;stroke:#92E3A9;stroke-miterlimit:10;" points="279.667,165.667 308.854,177.114 333.273,129.8 
					341.118,108.891 				"/>
				<path style="fill:#92E3A9;" d="M311.466,175.928c-0.655-1.443-2.357-2.081-3.799-1.426c-1.443,0.655-2.081,2.356-1.426,3.799
					c0.656,1.443,2.357,2.081,3.799,1.426C311.483,179.072,312.122,177.37,311.466,175.928z"/>
				<path style="fill:#92E3A9;" d="M335.559,128.103c-0.656-1.443-2.357-2.081-3.799-1.426c-1.443,0.656-2.081,2.357-1.426,3.799
					c0.655,1.443,2.357,2.081,3.799,1.426C335.576,131.247,336.215,129.546,335.559,128.103z"/>
				<path style="fill:#92E3A9;" d="M343.667,109.667c0-1.585-1.285-2.869-2.87-2.869c-1.585,0-2.869,1.285-2.869,2.869
					c0,1.585,1.285,2.869,2.869,2.869C342.382,112.536,343.667,111.251,343.667,109.667z"/>
			</g>
		</g>
		<g>
			<path style="fill:#B0B0B0;" d="M306.87,76.009c-7.008,0.219-11.231,2.15-13.493,3.653c-6.81-2.512-15.154-3.092-21.665-0.847
				c-4.533,1.563-7.835,4.015-10.175,7.147c-0.669,0.895-1.259,1.845-1.777,2.846c-1.036,2.002-1.783,4.206-2.291,6.573
				c-0.381,1.776-0.628,3.643-0.762,5.585c-0.022,0.321-0.034,0.645-0.037,0.972c-0.001,0.101,0.005,0.205,0.006,0.306
				c0.002,0.226,0.003,0.452,0.014,0.68c0.006,0.124,0.018,0.25,0.027,0.375c0.014,0.209,0.026,0.417,0.046,0.628
				c0.013,0.128,0.031,0.258,0.046,0.387c0.024,0.208,0.047,0.416,0.077,0.625c0.019,0.133,0.044,0.267,0.066,0.4
				c0.033,0.207,0.065,0.413,0.105,0.621c0.025,0.134,0.056,0.268,0.083,0.402c0.043,0.209,0.084,0.417,0.132,0.626
				c0.03,0.132,0.065,0.264,0.097,0.397c0.052,0.211,0.102,0.423,0.159,0.634c0.035,0.132,0.074,0.264,0.111,0.396
				c0.06,0.212,0.118,0.424,0.182,0.635c0.04,0.131,0.082,0.262,0.124,0.393c0.067,0.213,0.134,0.425,0.205,0.638
				c0.043,0.129,0.089,0.256,0.134,0.385c0.074,0.214,0.149,0.429,0.227,0.643c0.046,0.126,0.095,0.251,0.142,0.376
				c0.081,0.213,0.161,0.426,0.245,0.639c0.051,0.129,0.105,0.258,0.157,0.387c0.084,0.207,0.169,0.414,0.256,0.62
				c0.054,0.128,0.11,0.254,0.165,0.381c0.09,0.207,0.18,0.413,0.272,0.619c0.055,0.123,0.112,0.244,0.168,0.366
				c0.095,0.206,0.19,0.411,0.286,0.615c0.059,0.123,0.119,0.245,0.178,0.368c0.096,0.198,0.192,0.395,0.29,0.591
				c0.063,0.126,0.126,0.25,0.19,0.374c0.098,0.191,0.195,0.382,0.294,0.57c0.065,0.123,0.13,0.245,0.195,0.367
				c0.098,0.184,0.197,0.368,0.296,0.55c0.068,0.124,0.136,0.246,0.204,0.369c0.098,0.177,0.196,0.353,0.295,0.527
				c0.07,0.123,0.14,0.245,0.211,0.367c0.096,0.166,0.192,0.332,0.288,0.495c0.074,0.125,0.147,0.248,0.221,0.372
				c0.092,0.154,0.184,0.307,0.276,0.458c0.079,0.13,0.158,0.257,0.236,0.384c0.086,0.139,0.172,0.277,0.257,0.412
				c0.082,0.13,0.164,0.258,0.245,0.386c0.082,0.128,0.163,0.255,0.245,0.38c0.085,0.131,0.169,0.259,0.254,0.387
				c0.075,0.113,0.149,0.224,0.223,0.334c0.09,0.134,0.178,0.265,0.267,0.395c0.065,0.095,0.13,0.19,0.194,0.283
				c0.095,0.137,0.188,0.271,0.281,0.403c0.056,0.08,0.112,0.158,0.167,0.236c0.098,0.138,0.195,0.273,0.291,0.404
				c0.045,0.062,0.09,0.124,0.135,0.184c0.103,0.141,0.205,0.278,0.305,0.411c0.034,0.045,0.067,0.089,0.1,0.133
				c0.105,0.139,0.208,0.274,0.309,0.403c0.025,0.033,0.05,0.065,0.076,0.097c0.107,0.137,0.211,0.267,0.311,0.392
				c0.014,0.018,0.028,0.035,0.043,0.053c0.106,0.131,0.209,0.256,0.307,0.372c0.008,0.01,0.016,0.019,0.024,0.028
				c0.103,0.122,0.202,0.236,0.295,0.341c0,0,0.001,0.001,0.001,0.001c0.16,0.18,0.308,0.342,0.434,0.467
				c2.501,2.501,1.786,6.788,0.357,8.575c-0.098,0.122-0.183,0.232-0.274,0.347c-0.43-0.926-0.674-1.45-0.674-1.45
				c-5.368-2.013-17.112,9.059-21.138,19.796c-4.026,10.737-8.388,30.198-10.737,34.224c-2.274,3.898-8.33,9.37-16.934,15.195
				c5.051,5.726,17.728,17.797,38.29,22.848c4.722-11.62,13.314-24.695,14.209-25.293c1.007-0.671,4.362-2.013,9.059-7.046
				c4.697-5.033,8.388-12.415,5.704-19.125c-1.118-2.794-4.504-10.301-8.076-18.11c1.08-4.632,3.72-15.29,5.932-18.885
				c2.858-4.645,4.287-6.074,4.287-6.074s14.648,4.287,17.149,2.144c2.501-2.144,6.788-15.363,6.788-15.363s5.002-2.144,4.287-4.644
				c-0.715-2.501-6.074-3.573-6.431-7.86c-0.084-1.008-0.127-1.913-0.146-2.714c0.558,0.072,1.148,0.101,1.803,0.035
				c3.636-0.364,2.545-4.726,1.454-6.544c-1.091-1.818,3.272-3.999,5.817-7.635C321.412,86.189,318.504,75.646,306.87,76.009z"/>
			<path style="fill:#8A8A8A;" d="M291.236,81.463c0,0,3.999-5.09,15.634-5.453c11.634-0.364,14.543,10.18,11.998,13.816
				c-2.545,3.636-6.908,5.817-5.817,7.635c1.091,1.818,2.181,6.181-1.454,6.544c-3.636,0.364-5.817-1.454-6.181-4.726
				C305.052,96.006,295.962,81.826,291.236,81.463z"/>
			<path style="fill:#B0B0B0;" d="M309.939,99.895c0,0-0.714-6.788-6.788-13.934s-21.079-10.718-31.44-7.145
				c-10.361,3.573-14.291,11.79-15.005,22.151c-0.715,10.361,8.932,23.937,11.433,26.438c2.501,2.501,1.786,6.788,0.357,8.575
				c-1.429,1.786-2.144,2.858-2.144,2.858l11.075,20.722c0,0,3.573-16.434,6.431-21.079c2.858-4.645,4.287-6.074,4.287-6.074
				s14.648,4.287,17.149,2.144c2.501-2.144,6.788-15.363,6.788-15.363s5.002-2.144,4.287-4.644c-0.715-2.501-6.074-3.573-6.431-7.86
				S309.939,99.895,309.939,99.895z"/>
			<path style="fill:#8A8A8A;" d="M303.151,85.961c-6.074-7.145-21.079-10.718-31.44-7.145
				c-10.361,3.573-14.291,11.79-15.005,22.151c-0.7,10.156,8.549,23.394,11.271,26.269c2.607,0.112,8.726-1.087,13.38-13.407
				c0,0,3.93,0.715,6.788-3.93c2.858-4.645-0.357-9.289,3.573-14.648c3.263-4.45,12.433-3.727,15.452-3.354
				C306.199,90.049,304.904,88.023,303.151,85.961z"/>
			<path style="fill:#B0B0B0;" d="M285.645,115.257c0,0-5.002-9.646-9.289-7.145s-1.429,10.361,0.714,13.576
				c2.144,3.215,7.503-1.072,7.503-1.072"/>
			<g>
				<polyline style="fill:none;stroke:#92E3A9;stroke-miterlimit:10;" points="289.116,100.67 272.749,147.561 251.073,197.547 
					223.204,244.438 				"/>
				<path style="fill:#92E3A9;" d="M291.985,100.67c0-1.585-1.285-2.869-2.869-2.869c-1.585,0-2.87,1.285-2.87,2.869
					c0,1.585,1.285,2.869,2.87,2.869C290.701,103.54,291.985,102.255,291.985,100.67z"/>
				<path style="fill:#92E3A9;" d="M275.618,147.561c0-1.585-1.285-2.869-2.869-2.869c-1.585,0-2.87,1.285-2.87,2.869
					c0,1.585,1.285,2.869,2.87,2.869C274.333,150.43,275.618,149.145,275.618,147.561z"/>
				<circle style="fill:#92E3A9;" cx="251.073" cy="197.547" r="2.869"/>
				<circle style="fill:#92E3A9;" cx="223.204" cy="244.438" r="2.869"/>
			</g>
		</g>
		<g>
			<g>
				<path style="fill:#B0B0B0;" d="M265.087,140.799c0,0-55.182-10.883-59.412-10.126c-3.451,0.618-31.298,19.488-41.443,26.421
					c0,0-13.397,5.648-14.999,8.596c-1.602,2.948,3.789,7.786,3.789,7.786s0.353,2.865,2.872,3.851
					c2.519,0.986,10.996-5.482,11.208-7.276c0.146-1.238,2.21-4.337,3.479-6.142c9.301-4.413,37.988-16.772,37.988-16.772
					s49.165,15.634,54.971,12.678C269.345,156.859,274.547,145.175,265.087,140.799z"/>
				<g>
					<polyline style="fill:none;stroke:#92E3A9;stroke-miterlimit:10;" points="264.344,150.215 205.576,137.925 168.581,160.619 
						153.023,173.476 					"/>
					<path style="fill:#92E3A9;" d="M266.865,151.584c0.756-1.393,0.241-3.135-1.152-3.891c-1.393-0.756-3.135-0.241-3.891,1.152
						c-0.756,1.393-0.241,3.135,1.152,3.891C264.367,153.493,266.109,152.977,266.865,151.584z"/>
					<path style="fill:#92E3A9;" d="M207.097,139.758c0.756-1.393,0.241-3.135-1.152-3.891c-1.393-0.757-3.135-0.241-3.891,1.152
						c-0.756,1.393-0.241,3.135,1.152,3.891C204.599,141.666,206.341,141.15,207.097,139.758z"/>
					<path style="fill:#92E3A9;" d="M171.103,161.989c0.756-1.393,0.241-3.135-1.152-3.891c-1.393-0.756-3.135-0.241-3.891,1.152
						c-0.756,1.393-0.241,3.135,1.152,3.891C168.604,163.897,170.346,163.381,171.103,161.989z"/>
					<path style="fill:#92E3A9;" d="M155.669,174.429c0.756-1.393,0.241-3.135-1.152-3.891c-1.393-0.757-3.135-0.241-3.891,1.152
						c-0.756,1.393-0.241,3.135,1.152,3.891C153.17,176.337,154.912,175.821,155.669,174.429z"/>
				</g>
			</g>
			<g>
				<path style="fill:#8A8A8A;" d="M263.391,93.912c0,0-5.995-18.804-18.534-27.684s-22.767,1.096-30.967,4.405
					c-8.2,3.309-13.687-4.248-19.893-9.225c-6.206-4.977-18.983,3.384-13.823,20.362s27.948,20.464,38.438,15.887
					c10.49-4.577,16.922-13.877,25.928-11.947c9.007,1.93,15.985,10.527,15.985,10.527L263.391,93.912z"/>
				<g>
					<polyline style="fill:none;stroke:#92E3A9;stroke-miterlimit:10;" points="258.339,88.045 236.454,71.316 202.678,85.301 
						189.966,69.432 					"/>
					<path style="fill:#92E3A9;" d="M205.198,86.673c0.758-1.392,0.243-3.134-1.149-3.892c-1.392-0.757-3.135-0.243-3.892,1.149
						c-0.757,1.392-0.243,3.135,1.149,3.892C202.698,88.579,204.441,88.065,205.198,86.673z"/>
					<path style="fill:#92E3A9;" d="M192.685,70.798c0.757-1.392,0.243-3.134-1.149-3.892c-1.392-0.757-3.135-0.243-3.892,1.149
						c-0.758,1.392-0.243,3.135,1.149,3.892C190.185,72.705,191.927,72.19,192.685,70.798z"/>
					<path style="fill:#92E3A9;" d="M238.975,72.688c0.758-1.392,0.243-3.134-1.149-3.892c-1.392-0.757-3.135-0.243-3.892,1.149
						c-0.758,1.392-0.243,3.135,1.149,3.892C236.475,74.594,238.217,74.08,238.975,72.688z"/>
					<path style="fill:#92E3A9;" d="M260.859,89.416c0.757-1.392,0.243-3.134-1.149-3.892s-3.135-0.243-3.892,1.149
						c-0.757,1.392-0.243,3.134,1.149,3.892C258.359,91.323,260.102,90.808,260.859,89.416z"/>
				</g>
			</g>
			<g>
				<g>
					<path style="fill:#8A8A8A;" d="M212.357,231.455c0,0-37.53,48.394-37.215,54.191c0.316,5.797,5.612,13.936,14.673,10.376
						c9.061-3.56,42.685-24.246,53.773-38.584C254.676,243.1,232.484,212.678,212.357,231.455z"/>
					<path style="fill:#8A8A8A;" d="M217.389,219.752c0,0,40.105,0.786,71.561,12.975c31.455,12.189,31.062,14.941,29.882,19.659
						c-1.18,4.718-11.796,7.864-49.542,9.043c-37.746,1.18-49.542-1.966-61.731-17.693"/>
					<g>
						<path style="fill:#8A8A8A;" d="M191.283,278.117c0,0-11.762-7.914-25.086-11.358c-13.324-3.444-38.816-11.658-39.992-12.449
							c-1.176-0.791-12.81-10.459-14.264-9.86c-1.454,0.599-21.281,25.77-21.41,27.524s-0.193,2.631,3.443,1.134
							c3.636-1.497,4.363-1.796,6.181-2.545c1.818-0.748,20.895-6.051,20.895-6.051s48.696,28.426,55.219,30.842
							s13.231,1.313,13.231,1.313s4.152-1.186,7.118-4.152"/>
						<path style="fill:#B0B0B0;" d="M143.532,260.133c-9.025-2.823-16.694-5.397-17.327-5.822
							c-1.176-0.791-12.81-10.459-14.264-9.86c-1.454,0.599-21.281,25.77-21.41,27.524s-0.193,2.631,3.443,1.134
							c3.636-1.497,4.363-1.796,6.181-2.545c1.818-0.748,20.895-6.051,20.895-6.051s6.235,3.64,14.541,8.424
							C137.351,266.835,140.606,262.743,143.532,260.133z"/>
						<path style="fill:#DEDEDE;" d="M116.195,260.983l7.391-8.708c-3.853-3.037-10.564-8.27-11.646-7.824
							c-1.454,0.599-21.281,25.77-21.41,27.524s-0.193,2.631,3.443,1.134c3.636-1.497,4.363-1.796,6.181-2.545
							c1.818-0.748,20.895-6.051,20.895-6.051s0.089,0.052,0.244,0.143C120.094,262.268,116.195,260.983,116.195,260.983z"/>
					</g>
				</g>
				<g>
					<polyline style="fill:none;stroke:#92E3A9;stroke-miterlimit:10;" points="225.416,248.419 186.767,286.948 122.449,257.168 
						104.731,262.517 90.531,271.974 					"/>
					<path style="fill:#92E3A9;" d="M188.162,287.604c0.674-1.434,0.059-3.143-1.376-3.818c-1.434-0.674-3.143-0.059-3.818,1.376
						c-0.674,1.434-0.059,3.143,1.376,3.818C185.779,289.655,187.488,289.039,188.162,287.604z"/>
					<path style="fill:#92E3A9;" d="M126.048,259.392c0.674-1.434,0.059-3.143-1.376-3.818c-1.434-0.674-3.143-0.059-3.818,1.376
						c-0.674,1.434-0.059,3.143,1.376,3.818C123.664,261.442,125.374,260.826,126.048,259.392z"/>
					<path style="fill:#92E3A9;" d="M107.328,263.738c0.674-1.434,0.059-3.143-1.376-3.818c-1.434-0.674-3.143-0.059-3.818,1.376
						c-0.674,1.434-0.059,3.143,1.376,3.818C104.944,265.788,106.653,265.172,107.328,263.738z"/>
					<path style="fill:#92E3A9;" d="M94.625,272.764c0.674-1.434,0.058-3.143-1.376-3.818c-1.434-0.674-3.143-0.059-3.818,1.376
						s-0.058,3.143,1.376,3.818C92.241,274.814,93.95,274.198,94.625,272.764z"/>
				</g>
			</g>
			<g>
				<g>
					<path style="fill:#8A8A8A;" d="M326.406,337.263c2.567-0.85,9.241-0.816,13.816-2.179c-4.568-4.771-8.333-8.725-8.333-8.725
						s-10.41-71.178-12.522-76.684c-2.112-5.507-5.952-7.011-10.916-5.023l-21.999,11.668
						C286.451,256.32,326.501,336.543,326.406,337.263z"/>
					<path style="fill:#B0B0B0;" d="M326.406,337.263c2.567-0.85,9.241-0.816,13.816-2.179c-4.568-4.771-8.333-8.725-8.333-8.725
						s-1.185-7.259-2.864-17.31c-5.427,3.829-10.365,4.893-13.88,5.013C321.217,326.309,326.446,336.96,326.406,337.263z"/>
					<path style="fill:#DEDEDE;" d="M332.775,350.2c2.357-0.408,26.452-11.066,29.543-13.96s6.791-8.558,3.512-9.389
						s-6.736,2.206-12.293,3.107c-5.557,0.901-22.876-4.123-22.876-4.123c-1.158,3.546,3.989,9.413,3.989,9.413l-8.245,2.016
						C326.406,337.263,330.419,350.608,332.775,350.2z"/>
				</g>
				<g>
					<polyline style="fill:none;stroke:#92E3A9;stroke-miterlimit:10;" points="366.165,328.202 348.105,335.574 328.94,330.045 
						305.72,253.383 218.333,232.333 					"/>
					<path style="fill:#92E3A9;" d="M331.809,330.045c0-1.585-1.285-2.869-2.869-2.869c-1.585,0-2.87,1.285-2.87,2.869
						c0,1.585,1.285,2.869,2.87,2.869C330.524,332.915,331.809,331.63,331.809,330.045z"/>
					<path style="fill:#92E3A9;" d="M308.589,253.383c0-1.585-1.285-2.869-2.87-2.869c-1.585,0-2.869,1.285-2.869,2.869
						c0,1.585,1.285,2.87,2.869,2.87C307.305,256.253,308.589,254.968,308.589,253.383z"/>
					<path style="fill:#92E3A9;" d="M221.203,232.333c0-1.585-1.285-2.869-2.869-2.869c-1.585,0-2.869,1.285-2.869,2.869
						c0,1.585,1.285,2.87,2.869,2.87C219.918,235.203,221.203,233.918,221.203,232.333z"/>
					<circle style="fill:#92E3A9;" cx="348.105" cy="335.574" r="2.869"/>
					<path style="fill:#92E3A9;" d="M367.56,328.94c0-1.585-1.285-2.87-2.869-2.87c-1.585,0-2.87,1.285-2.87,2.87
						c0,1.585,1.285,2.869,2.87,2.869C366.275,331.809,367.56,330.524,367.56,328.94z"/>
				</g>
			</g>
		</g>
	</g>
</g>
<g id="Character_1">
	<g>
		<line style="fill:none;stroke:#263238;stroke-miterlimit:10;" x1="100" y1="384" x2="383" y2="384"/>
		<g>
			<g>
				<path style="fill:#263238;stroke:#263238;stroke-miterlimit:10;" d="M263.181,92.345c0,0-14.254-13.652-29.512-15.459
					c-15.258-1.807-19.474,11.845-25.095,18.671c-5.621,6.826-14.053,2.811-21.883,1.405c-7.83-1.405-15.057,12.046-2.409,24.493
					c12.648,12.447,34.33,4.617,41.356-4.417c7.027-9.034,8.231-20.277,17.065-22.887c8.833-2.61,19.072,1.606,19.072,1.606
					L263.181,92.345z"/>
				<g>
					<polyline style="fill:none;stroke:#92E3A9;stroke-miterlimit:10;" points="255.939,89.605 228.721,85.371 205.737,113.799 
						186.986,105.936 					"/>
					<path style="fill:#92E3A9;" d="M208.606,113.799c0-1.585-1.285-2.869-2.869-2.869c-1.585,0-2.869,1.285-2.869,2.869
						s1.285,2.869,2.869,2.869C207.322,116.669,208.606,115.384,208.606,113.799z"/>
					<circle style="fill:#92E3A9;" cx="187.158" cy="105.837" r="2.869"/>
					<path style="fill:#92E3A9;" d="M231.591,85.371c0-1.585-1.285-2.869-2.869-2.869c-1.585,0-2.869,1.285-2.869,2.869
						s1.285,2.869,2.869,2.869C230.306,88.241,231.591,86.956,231.591,85.371z"/>
					<path style="fill:#92E3A9;" d="M258.809,89.605c0-1.585-1.285-2.869-2.869-2.869c-1.585,0-2.869,1.285-2.869,2.869
						c0,1.585,1.285,2.869,2.869,2.869C257.524,92.475,258.809,91.19,258.809,89.605z"/>
				</g>
			</g>
			<g>
				<g>
					<path style="fill:#FFFFFF;stroke:#263238;stroke-miterlimit:10;" d="M272.917,149.975l26.507,32.546l37.244-26.842
						c0,0,10.737-17.112,12.079-17.112c1.342,0,11.073,7.382,10.402,11.072c-0.671,3.691-8.388,8.724-10.737,9.73
						c-2.349,1.007-6.375,2.013-6.375,2.013s-37.579,37.915-42.612,38.25c-5.033,0.335-24.494-17.112-24.494-17.112
						S265.871,158.699,272.917,149.975z"/>
					<path style="fill:#FFFFFF;stroke:#263238;stroke-miterlimit:10;" d="M335.319,157.085c0-1.363,5.454-13.089,5.454-13.089
						s3.545-5.453,4.635-4.908c1.091,0.545,7.362,5.181,6.544,6.544c-0.818,1.363-6.272-0.818-6.272-0.818s3.272,5.726-1.091,9.816"
						/>
					<line style="fill:none;stroke:#263238;stroke-miterlimit:10;" x1="347.044" y1="146.451" x2="353.043" y2="151.632"/>
				</g>
				<g>
					<polyline style="fill:none;stroke:#92E3A9;stroke-miterlimit:10;" points="267.082,157.467 297.737,192.302 339.539,159.325 
						355.331,143.533 					"/>
					<path style="fill:#92E3A9;" d="M300.606,192.302c0-1.585-1.285-2.869-2.869-2.869c-1.585,0-2.869,1.285-2.869,2.869
						c0,1.585,1.285,2.869,2.869,2.869C299.321,195.172,300.606,193.887,300.606,192.302z"/>
					<path style="fill:#92E3A9;" d="M342.323,158.726c0-1.585-1.285-2.869-2.87-2.869c-1.585,0-2.869,1.285-2.869,2.869
						c0,1.585,1.285,2.87,2.869,2.87C341.038,161.595,342.323,160.311,342.323,158.726z"/>
				</g>
			</g>
			<g>
				<g>
					<path style="fill:#263238;stroke:#263238;stroke-miterlimit:10;" d="M291.236,81.463c0,0,3.999-5.09,15.634-5.453
						c11.634-0.364,14.543,10.18,11.998,13.816c-2.545,3.636-6.908,5.817-5.817,7.635c1.091,1.818,2.181,6.181-1.454,6.544
						c-3.636,0.364-5.817-1.454-6.181-4.726C305.052,96.006,295.962,81.826,291.236,81.463z"/>
					<g>
						<path style="fill:#FFFFFF;stroke:#263238;stroke-miterlimit:10;" d="M309.939,99.895c0,0-0.714-6.788-6.788-13.934
							s-21.079-10.718-31.44-7.145c-10.361,3.573-14.291,11.79-15.005,22.151c-0.715,10.361,8.932,23.937,11.433,26.438
							c2.501,2.501,1.786,6.788,0.357,8.575c-1.429,1.786-2.144,2.858-2.144,2.858l11.075,20.722c0,0,3.573-16.434,6.431-21.079
							c2.858-4.645,4.287-6.074,4.287-6.074s14.648,4.287,17.149,2.144c2.501-2.144,6.788-15.363,6.788-15.363
							s5.002-2.144,4.287-4.644c-0.715-2.501-6.074-3.573-6.431-7.86S309.939,99.895,309.939,99.895z"/>
						<g>
							<ellipse style="fill:#263238;" cx="304.744" cy="109.263" rx="1.164" ry="2.329"/>
							<path style="fill:none;stroke:#263238;stroke-miterlimit:10;" d="M300.475,102.082c0,0,3.105-1.941,5.822,0.776"/>
							<path style="fill:none;stroke:#263238;stroke-miterlimit:10;" d="M307.293,122.725c0,0-4.493,0.449-5.391-2.696"/>
						</g>
					</g>
					<path style="fill:#263238;stroke:#263238;stroke-miterlimit:10;" d="M303.151,85.961c-6.074-7.145-21.079-10.718-31.44-7.145
						c-10.361,3.573-14.291,11.79-15.005,22.151c-0.7,10.156,8.549,23.394,11.271,26.269c2.607,0.112,8.726-1.087,13.38-13.407
						c0,0,3.93,0.715,6.788-3.93c2.858-4.645-0.357-9.289,3.573-14.648c3.263-4.45,12.433-3.727,15.452-3.354
						C306.199,90.049,304.904,88.023,303.151,85.961z"/>
					<path style="fill:#FFFFFF;stroke:#263238;stroke-miterlimit:10;" d="M285.645,115.257c0,0-5.002-9.646-9.289-7.145
						s-1.429,10.361,0.714,13.576c2.144,3.215,7.503-1.072,7.503-1.072"/>
				</g>
				<g>
					<g>
						<path style="fill:#263238;stroke:#263238;stroke-miterlimit:10;" d="M267.548,134.876c0,0,15.77,33.889,18.454,40.599
							c2.684,6.711-1.007,14.092-5.704,19.125c-4.697,5.033-8.053,6.375-9.059,7.046s-11.744,17.112-15.77,29.527
							c-4.026,12.415-5.704,22.816-17.783,26.507c-12.079,3.691-30.198-5.033-33.553-19.461s4.697-27.514,13.757-33.553
							c9.059-6.04,15.434-11.744,17.783-15.77c2.349-4.026,6.711-23.487,10.737-34.224
							C250.436,143.935,262.18,132.863,267.548,134.876z"/>
						<path style="fill:#808080;stroke:#263238;stroke-miterlimit:10;" d="M280.298,194.6c4.697-5.033,8.388-12.415,5.704-19.125
							c-2.684-6.711-18.454-40.599-18.454-40.599c-5.368-2.013-17.112,9.059-21.138,19.796
							c-4.026,10.737-8.388,30.198-10.737,34.224c-2.274,3.898-8.33,9.37-16.934,15.195c5.051,5.726,17.728,17.797,38.29,22.848
							c4.722-11.62,13.314-24.695,14.209-25.292C272.246,200.975,275.601,199.633,280.298,194.6z"/>
						<path style="fill:none;stroke:#263238;stroke-miterlimit:10;" d="M256.824,165.697c0,0,4.866,19.464,7.962,24.33"/>
						<path style="fill:none;stroke:#263238;stroke-miterlimit:10;" d="M252.4,167.024c0,0,4.424,11.501,6.193,16.81"/>
						<path style="fill:none;stroke:#263238;stroke-miterlimit:10;" d="M227.185,206.395c0,0,15.925,2.654,32.292-1.327"/>
						<path style="fill:none;stroke:#263238;stroke-miterlimit:10;" d="M235.59,203.298c0,0,19.876-1.034,32.292-4.866"/>
					</g>
					<g>
						<polyline style="fill:none;stroke:#92E3A9;stroke-miterlimit:10;" points="289.116,100.67 272.749,147.561 251.073,197.547 
							223.204,244.438 						"/>
						<path style="fill:#92E3A9;" d="M291.985,100.67c0-1.585-1.285-2.869-2.869-2.869c-1.585,0-2.87,1.285-2.87,2.869
							c0,1.585,1.285,2.869,2.87,2.869C290.701,103.54,291.985,102.255,291.985,100.67z"/>
						<path style="fill:#92E3A9;" d="M275.618,147.561c0-1.585-1.285-2.869-2.869-2.869c-1.585,0-2.87,1.285-2.87,2.869
							c0,1.585,1.285,2.869,2.87,2.869C274.333,150.43,275.618,149.145,275.618,147.561z"/>
						<circle style="fill:#92E3A9;" cx="251.073" cy="197.547" r="2.869"/>
						<circle style="fill:#92E3A9;" cx="223.204" cy="244.438" r="2.869"/>
					</g>
				</g>
			</g>
			<g>
				<g>
					<path style="fill:#263238;stroke:#263238;stroke-miterlimit:10;" d="M206.38,238.625c0,0-13.368,59.765-10.616,64.876
						c2.752,5.111,11.009,10.223,17.693,3.146c6.684-7.077,28.31-40.105,32.242-57.799
						C249.631,231.154,216.603,213.067,206.38,238.625z"/>
					<g>
						<path style="fill:#263238;stroke:#263238;stroke-miterlimit:10;" d="M199.696,292.492c0,0-11.796,7.864-20.053,18.873
							c-8.257,11.009-25.557,31.455-26.737,32.242c-1.18,0.786-14.548,7.864-14.548,9.436c0,1.573,15.728,29.489,17.3,30.276
							c1.573,0.786,2.359,1.18,2.359-2.752c0-3.932,0-4.718,0-6.684c0-1.966,2.359-21.625,2.359-21.625s44.824-34.207,49.542-39.319
							c4.718-5.112,9.83-15.334,9.83-15.334"/>
						<path style="fill:#FFFFFF;stroke:#263238;stroke-miterlimit:10;" d="M164.886,329.801
							c-6.046,7.271-11.346,13.383-11.98,13.806c-1.18,0.786-14.548,7.864-14.548,9.437c0,1.573,15.728,29.489,17.3,30.276
							c1.573,0.786,2.359,1.18,2.359-2.752c0-3.932,0-4.718,0-6.684c0-1.966,2.359-21.625,2.359-21.625s5.739-4.38,13.326-10.239
							C168.731,338.068,166.187,333.499,164.886,329.801z"/>
						<path style="fill:#FFFFFF;stroke:#263238;stroke-miterlimit:10;" d="M155.266,355.402l-5.238-10.149
							c-4.275,2.407-11.669,6.62-11.669,7.79c0,1.573,15.728,29.489,17.3,30.276c1.573,0.786,2.359,1.18,2.359-2.752
							c0-3.932,0-4.718,0-6.684c0-1.966,2.359-21.625,2.359-21.625s0.082-0.062,0.225-0.172
							C157.938,352.286,155.266,355.402,155.266,355.402z"/>
					</g>
				</g>
				<g>
					<polyline style="fill:none;stroke:#92E3A9;stroke-miterlimit:10;" points="225.416,248.419 206.837,299.733 157.735,347.95 
						153.754,368.741 157.735,383.339 					"/>
					<path style="fill:#92E3A9;" d="M208.379,299.733c0-1.585-1.285-2.869-2.869-2.869c-1.585,0-2.87,1.285-2.87,2.869
						c0,1.585,1.285,2.869,2.87,2.869C207.094,302.602,208.379,301.317,208.379,299.733z"/>
					<path style="fill:#92E3A9;" d="M160.604,347.95c0-1.585-1.285-2.869-2.869-2.869c-1.585,0-2.869,1.285-2.869,2.869
						c0,1.585,1.285,2.87,2.869,2.87C159.32,350.819,160.604,349.535,160.604,347.95z"/>
					<path style="fill:#92E3A9;" d="M156.85,368.741c0-1.585-1.285-2.87-2.869-2.87c-1.585,0-2.87,1.285-2.87,2.87
						c0,1.585,1.285,2.869,2.87,2.869C155.565,371.61,156.85,370.326,156.85,368.741z"/>
					<path style="fill:#92E3A9;" d="M160.389,382.012c0-1.585-1.285-2.87-2.87-2.87c-1.585,0-2.869,1.285-2.869,2.87
						s1.285,2.87,2.869,2.87C159.104,384.881,160.389,383.596,160.389,382.012z"/>
				</g>
			</g>
			<g>
				<path style="fill:#263238;stroke:#263238;stroke-miterlimit:10;" d="M217.389,219.752c0,0,40.105,0.786,71.561,12.975
					c31.455,12.189,31.062,14.941,29.882,19.659c-1.18,4.718-11.796,7.864-49.542,9.043c-37.746,1.18-49.542-1.966-61.731-17.693"/>
				<g>
					<path style="fill:#263238;stroke:#263238;stroke-miterlimit:10;" d="M281.872,255.532l-36.567,59.372
						c0,0-13.368,3.932-12.975,6.291c0.393,2.359,7.864,25.164,9.436,29.096c1.573,3.932,5.505,9.436,7.471,6.684
						c1.966-2.752,0.393-7.077,1.573-12.582c1.18-5.505,5.898-25.164,5.898-25.164s56.226-55.44,59.765-60.158
						c3.539-4.718,3.539-7.864-0.786-11.009"/>
					<path style="fill:#FFFFFF;stroke:#263238;stroke-miterlimit:10;" d="M256.926,296.036l-11.62,18.867
						c0,0-13.368,3.932-12.975,6.291c0.393,2.359,7.864,25.164,9.437,29.096c1.573,3.932,5.505,9.436,7.471,6.684
						c1.966-2.752,0.393-7.077,1.573-12.582c1.18-5.505,5.898-25.164,5.898-25.164s5.119-5.048,12.362-12.223
						C260.965,305.158,257.999,299.607,256.926,296.036z"/>
					<path style="fill:#FFFFFF;stroke:#263238;stroke-miterlimit:10;" d="M232.331,321.194c0.393,2.359,7.864,25.164,9.437,29.096
						c1.573,3.932,5.505,9.436,7.471,6.684c1.966-2.752,0.393-7.077,1.573-12.582c1.18-5.505,5.898-25.164,5.898-25.164
						c-3.539-1.18-9.436,3.932-9.436,3.932l-1.966-8.257C245.306,314.903,231.937,318.835,232.331,321.194z"/>
				</g>
				<g>
					<polyline style="fill:none;stroke:#92E3A9;stroke-miterlimit:10;" points="216.569,232.051 305.926,251.958 252.4,318.312 
						247.534,340.43 249.238,356.975 					"/>
					<path style="fill:#92E3A9;" d="M218.996,231.609c0-1.585-1.285-2.869-2.87-2.869c-1.585,0-2.869,1.285-2.869,2.869
						c0,1.585,1.285,2.87,2.869,2.87C217.711,234.479,218.996,233.194,218.996,231.609z"/>
					<path style="fill:#92E3A9;" d="M307.468,251.958c0-1.585-1.285-2.869-2.87-2.869c-1.585,0-2.869,1.285-2.869,2.869
						c0,1.585,1.285,2.87,2.869,2.87C306.183,254.827,307.468,253.542,307.468,251.958z"/>
					<circle style="fill:#92E3A9;" cx="253.285" cy="319.196" r="2.869"/>
					<circle style="fill:#92E3A9;" cx="247.534" cy="340.43" r="2.87"/>
					<path style="fill:#92E3A9;" d="M252.615,357.466c0-1.585-1.285-2.87-2.87-2.87c-1.585,0-2.869,1.285-2.869,2.87
						c0,1.585,1.285,2.869,2.869,2.869C251.331,360.336,252.615,359.051,252.615,357.466z"/>
				</g>
			</g>
			<g>
				<path style="fill:#FFFFFF;stroke:#263238;stroke-miterlimit:10;" d="M260.502,141.587c0,0-53.685,16.777-57.04,19.461
					c-2.737,2.19-18.2,32.064-23.805,42.998c0,0-9.077,11.358-9.077,14.713s7.046,5.033,7.046,5.033s1.678,2.349,4.362,2.013
					c2.684-0.335,7.046-10.066,6.375-11.743c-0.463-1.157-0.128-4.866,0.125-7.058c6.067-8.317,25.376-32.87,25.376-32.87
					s50.665-9.73,54.356-15.099C271.91,153.666,270.904,140.915,260.502,141.587z"/>
				<g>
					<polyline style="fill:none;stroke:#92E3A9;stroke-miterlimit:10;" points="264.344,150.215 206.837,167.467 185.161,205.067 
						177.626,223.792 					"/>
					<path style="fill:#92E3A9;" d="M267.213,150.215c0-1.585-1.285-2.869-2.87-2.869s-2.87,1.285-2.87,2.869
						c0,1.585,1.285,2.869,2.87,2.869S267.213,151.799,267.213,150.215z"/>
					<circle style="fill:#92E3A9;" cx="206.179" cy="168.352" r="2.869"/>
					<circle style="fill:#92E3A9;" cx="185.161" cy="205.067" r="2.869"/>
					<circle style="fill:#92E3A9;" cx="177.537" cy="223.366" r="2.869"/>
				</g>
			</g>
		</g>
	</g>
</g>
<g id="Window_2">
	<g>
		<rect x="78.931" y="38.441" style="fill:none;stroke:#263238;stroke-miterlimit:10;" width="315.363" height="356.833"/>
		<g>
			
				<rect x="78.931" y="38.441" style="fill:#263238;stroke:#263238;stroke-linecap:round;stroke-linejoin:round;stroke-miterlimit:10;" width="315.363" height="15.431"/>
			<g>
				<path style="fill:#92E3A9;stroke:#263238;stroke-linecap:round;stroke-linejoin:round;stroke-miterlimit:10;" d="M91.973,45.164
					c0,1.808-1.465,3.273-3.273,3.273s-3.273-1.465-3.273-3.273c0-1.808,1.465-3.273,3.273-3.273S91.973,43.357,91.973,45.164z"/>
				<path style="fill:#92E3A9;stroke:#263238;stroke-linecap:round;stroke-linejoin:round;stroke-miterlimit:10;" d="
					M101.893,45.164c0,1.808-1.465,3.273-3.273,3.273s-3.273-1.465-3.273-3.273c0-1.808,1.465-3.273,3.273-3.273
					S101.893,43.357,101.893,45.164z"/>
				<path style="fill:#92E3A9;stroke:#263238;stroke-linecap:round;stroke-linejoin:round;stroke-miterlimit:10;" d="
					M111.813,45.164c0,1.808-1.465,3.273-3.273,3.273s-3.273-1.465-3.273-3.273c0-1.808,1.466-3.273,3.273-3.273
					S111.813,43.357,111.813,45.164z"/>
			</g>
		</g>
	</g>
</g>
<g id="Windows_1">
	<g>
		
			<rect x="27.934" y="329.849" style="fill:#ABABAB;stroke:#263238;stroke-linecap:round;stroke-linejoin:round;stroke-miterlimit:10;" width="95.65" height="131.911"/>
		
			<rect x="27.934" y="329.849" style="fill:#808080;stroke:#263238;stroke-linecap:round;stroke-linejoin:round;stroke-miterlimit:10;" width="95.65" height="28.443"/>
		<path style="fill:none;stroke:#FFFFFF;stroke-linecap:round;stroke-linejoin:round;stroke-miterlimit:10;" d="M45.179,346.041
			c0,2.342-1.899,4.241-4.241,4.241c-2.342,0-4.241-1.899-4.241-4.241c0-2.342,1.899-4.241,4.241-4.241
			C43.281,341.8,45.179,343.699,45.179,346.041z"/>
		
			<line style="fill:none;stroke:#FFFFFF;stroke-linecap:round;stroke-linejoin:round;stroke-miterlimit:10;" x1="37.64" y1="349.339" x2="33.4" y2="354.051"/>
		
			<line style="fill:none;stroke:#263238;stroke-linecap:round;stroke-linejoin:round;stroke-miterlimit:10;" x1="28.424" y1="358.054" x2="122.032" y2="358.054"/>
		
			<rect x="27.934" y="326.956" style="fill:#263238;stroke:#263238;stroke-linecap:round;stroke-linejoin:round;stroke-miterlimit:10;" width="95.65" height="11.573"/>
		<g>
			<path style="fill:#808080;stroke:#263238;stroke-linecap:round;stroke-linejoin:round;stroke-miterlimit:10;" d="M41.042,332.995
				c0,1.712-1.387,3.099-3.099,3.099c-1.711,0-3.099-1.387-3.099-3.099c0-1.711,1.387-3.099,3.099-3.099
				C39.655,329.896,41.042,331.284,41.042,332.995z"/>
			<path style="fill:#808080;stroke:#263238;stroke-linecap:round;stroke-linejoin:round;stroke-miterlimit:10;" d="M51.372,332.995
				c0,1.712-1.387,3.099-3.099,3.099c-1.712,0-3.099-1.387-3.099-3.099c0-1.711,1.387-3.099,3.099-3.099
				C49.984,329.896,51.372,331.284,51.372,332.995z"/>
			<path style="fill:#808080;stroke:#263238;stroke-linecap:round;stroke-linejoin:round;stroke-miterlimit:10;" d="M61.701,332.995
				c0,1.712-1.387,3.099-3.099,3.099c-1.711,0-3.099-1.387-3.099-3.099c0-1.711,1.387-3.099,3.099-3.099
				C60.314,329.896,61.701,331.284,61.701,332.995z"/>
		</g>
		
			<line style="fill:none;stroke:#263238;stroke-linecap:round;stroke-linejoin:round;stroke-miterlimit:10;" x1="28.424" y1="377.77" x2="122.032" y2="377.77"/>
		<polygon style="fill:#FFFFFF;" points="44.032,368.321 35.12,364.709 35.12,371.933 		"/>
		
			<line style="fill:none;stroke:#263238;stroke-linecap:round;stroke-linejoin:round;stroke-miterlimit:10;" x1="28.424" y1="397.486" x2="122.032" y2="397.486"/>
		<polygon style="fill:#FFFFFF;" points="44.032,388.037 35.12,384.425 35.12,391.649 		"/>
		
			<line style="fill:none;stroke:#263238;stroke-linecap:round;stroke-linejoin:round;stroke-miterlimit:10;" x1="28.424" y1="417.202" x2="122.032" y2="417.202"/>
		<polygon style="fill:#FFFFFF;" points="44.032,407.752 35.12,404.14 35.12,411.365 		"/>
		
			<line style="fill:none;stroke:#263238;stroke-linecap:round;stroke-linejoin:round;stroke-miterlimit:10;" x1="28.424" y1="436.917" x2="122.032" y2="436.917"/>
		<polygon style="fill:#FFFFFF;" points="44.032,427.468 35.12,423.856 35.12,431.08 		"/>
		
			<line style="fill:none;stroke:#263238;stroke-linecap:round;stroke-linejoin:round;stroke-miterlimit:10;" x1="28.424" y1="456.633" x2="122.032" y2="456.633"/>
		<polygon style="fill:#FFFFFF;" points="44.032,447.184 35.12,443.572 35.12,450.796 		"/>
		
			<line style="fill:none;stroke:#FFFFFF;stroke-linecap:round;stroke-linejoin:round;stroke-miterlimit:10;" x1="53.89" y1="367.912" x2="108.108" y2="367.912"/>
		
			<line style="fill:none;stroke:#FFFFFF;stroke-linecap:round;stroke-linejoin:round;stroke-miterlimit:10;" x1="53.89" y1="387.806" x2="108.108" y2="387.806"/>
		
			<line style="fill:none;stroke:#FFFFFF;stroke-linecap:round;stroke-linejoin:round;stroke-miterlimit:10;" x1="53.89" y1="407.701" x2="108.108" y2="407.701"/>
		
			<line style="fill:none;stroke:#FFFFFF;stroke-linecap:round;stroke-linejoin:round;stroke-miterlimit:10;" x1="53.89" y1="427.881" x2="108.108" y2="427.881"/>
		
			<line style="fill:none;stroke:#FFFFFF;stroke-linecap:round;stroke-linejoin:round;stroke-miterlimit:10;" x1="53.89" y1="447.489" x2="108.108" y2="447.489"/>
	</g>
	<g>
		
			<rect x="169.211" y="414" style="fill:#ABABAB;stroke:#263238;stroke-linecap:round;stroke-linejoin:round;stroke-miterlimit:10;" width="308" height="61"/>
		<g>
			
				<line style="fill:none;stroke:#FFFFFF;stroke-linecap:round;stroke-linejoin:round;stroke-miterlimit:10;" x1="216.961" y1="415.125" x2="216.961" y2="417.875"/>
			
				<line style="fill:none;stroke:#FFFFFF;stroke-linecap:round;stroke-linejoin:round;stroke-miterlimit:10;" x1="222.711" y1="415.125" x2="222.711" y2="417.875"/>
			
				<line style="fill:none;stroke:#FFFFFF;stroke-linecap:round;stroke-linejoin:round;stroke-miterlimit:10;" x1="228.461" y1="415.125" x2="228.461" y2="417.875"/>
			
				<line style="fill:none;stroke:#FFFFFF;stroke-linecap:round;stroke-linejoin:round;stroke-miterlimit:10;" x1="234.211" y1="415.125" x2="234.211" y2="417.875"/>
			
				<line style="fill:none;stroke:#FFFFFF;stroke-linecap:round;stroke-linejoin:round;stroke-miterlimit:10;" x1="239.961" y1="415.125" x2="239.961" y2="417.875"/>
			
				<line style="fill:none;stroke:#FFFFFF;stroke-linecap:round;stroke-linejoin:round;stroke-miterlimit:10;" x1="245.711" y1="415.125" x2="245.711" y2="417.875"/>
			
				<line style="fill:none;stroke:#FFFFFF;stroke-linecap:round;stroke-linejoin:round;stroke-miterlimit:10;" x1="251.461" y1="415.125" x2="251.461" y2="417.875"/>
			
				<line style="fill:none;stroke:#FFFFFF;stroke-linecap:round;stroke-linejoin:round;stroke-miterlimit:10;" x1="257.211" y1="415.125" x2="257.211" y2="417.875"/>
			
				<line style="fill:none;stroke:#FFFFFF;stroke-linecap:round;stroke-linejoin:round;stroke-miterlimit:10;" x1="262.961" y1="415.125" x2="262.961" y2="417.875"/>
			
				<line style="fill:none;stroke:#FFFFFF;stroke-linecap:round;stroke-linejoin:round;stroke-miterlimit:10;" x1="268.711" y1="415.125" x2="268.711" y2="417.875"/>
			
				<line style="fill:none;stroke:#FFFFFF;stroke-linecap:round;stroke-linejoin:round;stroke-miterlimit:10;" x1="274.461" y1="415.125" x2="274.461" y2="417.875"/>
			
				<line style="fill:none;stroke:#FFFFFF;stroke-linecap:round;stroke-linejoin:round;stroke-miterlimit:10;" x1="280.211" y1="415.125" x2="280.211" y2="417.875"/>
			
				<line style="fill:none;stroke:#FFFFFF;stroke-linecap:round;stroke-linejoin:round;stroke-miterlimit:10;" x1="285.961" y1="415.125" x2="285.961" y2="417.875"/>
			
				<line style="fill:none;stroke:#FFFFFF;stroke-linecap:round;stroke-linejoin:round;stroke-miterlimit:10;" x1="291.711" y1="415.125" x2="291.711" y2="417.875"/>
			
				<line style="fill:none;stroke:#FFFFFF;stroke-linecap:round;stroke-linejoin:round;stroke-miterlimit:10;" x1="297.461" y1="415.125" x2="297.461" y2="417.875"/>
			
				<line style="fill:none;stroke:#FFFFFF;stroke-linecap:round;stroke-linejoin:round;stroke-miterlimit:10;" x1="303.211" y1="415.125" x2="303.211" y2="417.875"/>
			
				<line style="fill:none;stroke:#FFFFFF;stroke-linecap:round;stroke-linejoin:round;stroke-miterlimit:10;" x1="308.961" y1="415.125" x2="308.961" y2="417.875"/>
			
				<line style="fill:none;stroke:#FFFFFF;stroke-linecap:round;stroke-linejoin:round;stroke-miterlimit:10;" x1="314.711" y1="415.125" x2="314.711" y2="417.875"/>
			
				<line style="fill:none;stroke:#FFFFFF;stroke-linecap:round;stroke-linejoin:round;stroke-miterlimit:10;" x1="320.461" y1="415.125" x2="320.461" y2="417.875"/>
			
				<line style="fill:none;stroke:#FFFFFF;stroke-linecap:round;stroke-linejoin:round;stroke-miterlimit:10;" x1="326.211" y1="415.125" x2="326.211" y2="417.875"/>
			
				<line style="fill:none;stroke:#FFFFFF;stroke-linecap:round;stroke-linejoin:round;stroke-miterlimit:10;" x1="331.961" y1="415.125" x2="331.961" y2="417.875"/>
			
				<line style="fill:none;stroke:#FFFFFF;stroke-linecap:round;stroke-linejoin:round;stroke-miterlimit:10;" x1="337.711" y1="415.125" x2="337.711" y2="417.875"/>
			
				<line style="fill:none;stroke:#FFFFFF;stroke-linecap:round;stroke-linejoin:round;stroke-miterlimit:10;" x1="343.461" y1="415.125" x2="343.461" y2="417.875"/>
			
				<line style="fill:none;stroke:#FFFFFF;stroke-linecap:round;stroke-linejoin:round;stroke-miterlimit:10;" x1="349.211" y1="415.125" x2="349.211" y2="417.875"/>
			
				<line style="fill:none;stroke:#FFFFFF;stroke-linecap:round;stroke-linejoin:round;stroke-miterlimit:10;" x1="354.961" y1="415.125" x2="354.961" y2="417.875"/>
			
				<line style="fill:none;stroke:#FFFFFF;stroke-linecap:round;stroke-linejoin:round;stroke-miterlimit:10;" x1="360.711" y1="415.125" x2="360.711" y2="417.875"/>
			
				<line style="fill:none;stroke:#FFFFFF;stroke-linecap:round;stroke-linejoin:round;stroke-miterlimit:10;" x1="366.838" y1="415.125" x2="366.838" y2="417.875"/>
			
				<line style="fill:none;stroke:#FFFFFF;stroke-linecap:round;stroke-linejoin:round;stroke-miterlimit:10;" x1="372.965" y1="415.125" x2="372.965" y2="417.875"/>
			
				<line style="fill:none;stroke:#FFFFFF;stroke-linecap:round;stroke-linejoin:round;stroke-miterlimit:10;" x1="379.092" y1="415.125" x2="379.092" y2="417.875"/>
			
				<line style="fill:none;stroke:#FFFFFF;stroke-linecap:round;stroke-linejoin:round;stroke-miterlimit:10;" x1="385.219" y1="415.125" x2="385.219" y2="417.875"/>
			
				<line style="fill:none;stroke:#FFFFFF;stroke-linecap:round;stroke-linejoin:round;stroke-miterlimit:10;" x1="391.346" y1="415.125" x2="391.346" y2="417.875"/>
			
				<line style="fill:none;stroke:#FFFFFF;stroke-linecap:round;stroke-linejoin:round;stroke-miterlimit:10;" x1="397.473" y1="415.125" x2="397.473" y2="417.875"/>
			
				<line style="fill:none;stroke:#FFFFFF;stroke-linecap:round;stroke-linejoin:round;stroke-miterlimit:10;" x1="403.6" y1="415.125" x2="403.6" y2="417.875"/>
			
				<line style="fill:none;stroke:#FFFFFF;stroke-linecap:round;stroke-linejoin:round;stroke-miterlimit:10;" x1="409.728" y1="415.125" x2="409.728" y2="417.875"/>
			
				<line style="fill:none;stroke:#FFFFFF;stroke-linecap:round;stroke-linejoin:round;stroke-miterlimit:10;" x1="415.855" y1="415.125" x2="415.855" y2="417.875"/>
			
				<line style="fill:none;stroke:#FFFFFF;stroke-linecap:round;stroke-linejoin:round;stroke-miterlimit:10;" x1="421.982" y1="415.125" x2="421.982" y2="417.875"/>
			
				<line style="fill:none;stroke:#FFFFFF;stroke-linecap:round;stroke-linejoin:round;stroke-miterlimit:10;" x1="428.109" y1="415.125" x2="428.109" y2="417.875"/>
			
				<line style="fill:none;stroke:#FFFFFF;stroke-linecap:round;stroke-linejoin:round;stroke-miterlimit:10;" x1="434.236" y1="415.125" x2="434.236" y2="417.875"/>
			
				<line style="fill:none;stroke:#FFFFFF;stroke-linecap:round;stroke-linejoin:round;stroke-miterlimit:10;" x1="440.363" y1="415.125" x2="440.363" y2="417.875"/>
			
				<line style="fill:none;stroke:#FFFFFF;stroke-linecap:round;stroke-linejoin:round;stroke-miterlimit:10;" x1="446.49" y1="415.125" x2="446.49" y2="417.875"/>
			
				<line style="fill:none;stroke:#FFFFFF;stroke-linecap:round;stroke-linejoin:round;stroke-miterlimit:10;" x1="452.617" y1="415.125" x2="452.617" y2="417.875"/>
			
				<line style="fill:none;stroke:#FFFFFF;stroke-linecap:round;stroke-linejoin:round;stroke-miterlimit:10;" x1="458.744" y1="415.125" x2="458.744" y2="417.875"/>
			
				<line style="fill:none;stroke:#FFFFFF;stroke-linecap:round;stroke-linejoin:round;stroke-miterlimit:10;" x1="464.871" y1="415.125" x2="464.871" y2="417.875"/>
			
				<line style="fill:none;stroke:#FFFFFF;stroke-linecap:round;stroke-linejoin:round;stroke-miterlimit:10;" x1="470.998" y1="415.125" x2="470.998" y2="417.875"/>
			
				<line style="fill:none;stroke:#FFFFFF;stroke-linecap:round;stroke-linejoin:round;stroke-miterlimit:10;" x1="483.252" y1="415.125" x2="483.252" y2="417.875"/>
			
				<line style="fill:none;stroke:#FFFFFF;stroke-linecap:round;stroke-linejoin:round;stroke-miterlimit:10;" x1="422.634" y1="415.125" x2="422.634" y2="417.875"/>
			
				<line style="fill:none;stroke:#FFFFFF;stroke-linecap:round;stroke-linejoin:round;stroke-miterlimit:10;" x1="428.761" y1="415.125" x2="428.761" y2="417.875"/>
			
				<line style="fill:none;stroke:#FFFFFF;stroke-linecap:round;stroke-linejoin:round;stroke-miterlimit:10;" x1="434.888" y1="415.125" x2="434.888" y2="417.875"/>
			
				<line style="fill:none;stroke:#FFFFFF;stroke-linecap:round;stroke-linejoin:round;stroke-miterlimit:10;" x1="441.015" y1="415.125" x2="441.015" y2="417.875"/>
			
				<line style="fill:none;stroke:#FFFFFF;stroke-linecap:round;stroke-linejoin:round;stroke-miterlimit:10;" x1="447.142" y1="415.125" x2="447.142" y2="417.875"/>
			
				<line style="fill:none;stroke:#FFFFFF;stroke-linecap:round;stroke-linejoin:round;stroke-miterlimit:10;" x1="453.269" y1="415.125" x2="453.269" y2="417.875"/>
			
				<line style="fill:none;stroke:#FFFFFF;stroke-linecap:round;stroke-linejoin:round;stroke-miterlimit:10;" x1="459.396" y1="415.125" x2="459.396" y2="417.875"/>
			
				<line style="fill:none;stroke:#FFFFFF;stroke-linecap:round;stroke-linejoin:round;stroke-miterlimit:10;" x1="465.523" y1="415.125" x2="465.523" y2="417.875"/>
			
				<line style="fill:none;stroke:#FFFFFF;stroke-linecap:round;stroke-linejoin:round;stroke-miterlimit:10;" x1="471.65" y1="415.125" x2="471.65" y2="417.875"/>
		</g>
		<rect x="211.066" y="419.866" style="fill:#92E3A9;" width="266.213" height="5.565"/>
		<rect x="249.636" y="431.289" style="fill:#263238;" width="160.921" height="5.565"/>
		<rect x="425.515" y="431.289" style="fill:#263238;" width="11.338" height="5.565"/>
		<rect x="211.066" y="442.86" style="fill:#92E3A9;" width="77.61" height="5.565"/>
		<rect x="379.617" y="442.86" style="fill:#92E3A9;" width="77.61" height="5.565"/>
		
			<rect x="169.211" y="419.866" style="fill:none;stroke:#263238;stroke-linecap:round;stroke-linejoin:round;stroke-miterlimit:10;" width="308" height="55.134"/>
		
			<rect x="169.211" y="419.866" style="fill:none;stroke:#263238;stroke-linecap:round;stroke-linejoin:round;stroke-miterlimit:10;" width="41.855" height="55.134"/>
		
			<line style="fill:none;stroke:#263238;stroke-linecap:round;stroke-linejoin:round;stroke-miterlimit:10;" x1="169.183" y1="425.431" x2="477.28" y2="425.431"/>
		
			<line style="fill:none;stroke:#263238;stroke-linecap:round;stroke-linejoin:round;stroke-miterlimit:10;" x1="169.183" y1="431.289" x2="477.28" y2="431.289"/>
		
			<line style="fill:none;stroke:#263238;stroke-linecap:round;stroke-linejoin:round;stroke-miterlimit:10;" x1="169.183" y1="437.147" x2="477.28" y2="437.147"/>
		
			<line style="fill:none;stroke:#263238;stroke-linecap:round;stroke-linejoin:round;stroke-miterlimit:10;" x1="169.183" y1="443.004" x2="477.28" y2="443.004"/>
		
			<line style="fill:none;stroke:#263238;stroke-linecap:round;stroke-linejoin:round;stroke-miterlimit:10;" x1="169.183" y1="448.862" x2="477.28" y2="448.862"/>
		<polygon style="fill:#FFFFFF;stroke:#263238;stroke-linecap:round;stroke-linejoin:round;stroke-miterlimit:10;" points="
			237.427,419.573 235.913,420.701 234.498,419.573 234.498,415.18 237.427,415.18 		"/>
		<polygon style="fill:#FFFFFF;stroke:#263238;stroke-linecap:round;stroke-linejoin:round;stroke-miterlimit:10;" points="
			339.338,419.573 337.824,420.701 336.409,419.573 336.409,415.18 339.338,415.18 		"/>
		<polygon style="fill:#FFFFFF;stroke:#263238;stroke-linecap:round;stroke-linejoin:round;stroke-miterlimit:10;" points="
			441.249,419.573 439.735,420.701 438.32,419.573 438.32,415.18 441.249,415.18 		"/>
		
			<line style="fill:none;stroke:#263238;stroke-linecap:round;stroke-linejoin:round;stroke-miterlimit:10;" x1="235.913" y1="420.701" x2="235.913" y2="449.25"/>
		<rect x="197.461" y="421.25" style="fill:#4A4A4A;" width="11" height="2.5"/>
		<rect x="197.461" y="427" style="fill:#4A4A4A;" width="11" height="2.5"/>
		<rect x="197.461" y="432.75" style="fill:#4A4A4A;" width="11" height="2.5"/>
		<rect x="197.461" y="438.5" style="fill:#4A4A4A;" width="11" height="2.5"/>
		<rect x="197.461" y="444.25" style="fill:#4A4A4A;" width="11" height="2.5"/>
		<rect x="188.711" y="421.25" style="fill:#4A4A4A;" width="6.75" height="2.5"/>
		<rect x="188.711" y="427" style="fill:#4A4A4A;" width="6.75" height="2.5"/>
		<rect x="188.711" y="432.75" style="fill:#4A4A4A;" width="6.75" height="2.5"/>
		<rect x="188.711" y="438.5" style="fill:#4A4A4A;" width="6.75" height="2.5"/>
		<rect x="188.711" y="444.25" style="fill:#4A4A4A;" width="6.75" height="2.5"/>
	</g>
	<g>
		
			<rect x="353.917" y="172.584" style="fill:#ABABAB;stroke:#263238;stroke-linecap:round;stroke-linejoin:round;stroke-miterlimit:10;" width="108.014" height="141.769"/>
		
			<rect x="353.917" y="169.691" style="fill:#263238;stroke:#263238;stroke-linecap:round;stroke-linejoin:round;stroke-miterlimit:10;" width="108.014" height="11.573"/>
		<g>
			<path style="fill:none;stroke:#263238;stroke-linecap:round;stroke-linejoin:round;stroke-miterlimit:10;" d="M424.702,231.817
				h-37.175c-1.916,0-3.47-1.553-3.47-3.47v-33.705c0-1.916,1.553-3.47,3.47-3.47h37.175c1.916,0,3.47,1.553,3.47,3.47v33.705
				C428.172,230.264,426.618,231.817,424.702,231.817z"/>
			
				<circle style="fill:#92E3A9;stroke:#263238;stroke-linecap:round;stroke-linejoin:round;stroke-miterlimit:10;" cx="419.498" cy="212.238" r="4.709"/>
		</g>
		<g>
			
				<line style="fill:none;stroke:#263238;stroke-linecap:round;stroke-linejoin:round;stroke-miterlimit:10;" x1="441.916" y1="248.865" x2="377.479" y2="248.865"/>
			
				<line style="fill:none;stroke:#263238;stroke-linecap:round;stroke-linejoin:round;stroke-miterlimit:10;" x1="441.916" y1="263.735" x2="377.479" y2="263.735"/>
			
				<line style="fill:none;stroke:#263238;stroke-linecap:round;stroke-linejoin:round;stroke-miterlimit:10;" x1="441.916" y1="278.604" x2="377.479" y2="278.604"/>
			
				<line style="fill:none;stroke:#263238;stroke-linecap:round;stroke-linejoin:round;stroke-miterlimit:10;" x1="441.916" y1="293.474" x2="377.479" y2="293.474"/>
			
				<circle style="fill:#92E3A9;stroke:#263238;stroke-linecap:round;stroke-linejoin:round;stroke-miterlimit:10;" cx="419.611" cy="248.865" r="4.709"/>
			<path style="fill:#92E3A9;stroke:#263238;stroke-linecap:round;stroke-linejoin:round;stroke-miterlimit:10;" d="
				M401.519,277.613c0,2.601-2.108,4.709-4.709,4.709s-4.709-2.108-4.709-4.709c0-2.6,2.108-4.709,4.709-4.709
				S401.519,275.013,401.519,277.613z"/>
			
				<circle style="fill:#92E3A9;stroke:#263238;stroke-linecap:round;stroke-linejoin:round;stroke-miterlimit:10;" cx="428.533" cy="292.979" r="4.709"/>
			
				<circle style="fill:#92E3A9;stroke:#263238;stroke-linecap:round;stroke-linejoin:round;stroke-miterlimit:10;" cx="419.611" cy="263.239" r="4.709"/>
		</g>
		<g>
			<path style="fill:#808080;stroke:#263238;stroke-linecap:round;stroke-linejoin:round;stroke-miterlimit:10;" d="M367.026,175.73
				c0,1.711-1.387,3.099-3.099,3.099c-1.711,0-3.099-1.387-3.099-3.099c0-1.712,1.387-3.099,3.099-3.099
				C365.639,172.631,367.026,174.018,367.026,175.73z"/>
			<path style="fill:#808080;stroke:#263238;stroke-linecap:round;stroke-linejoin:round;stroke-miterlimit:10;" d="M377.355,175.73
				c0,1.711-1.387,3.099-3.099,3.099c-1.711,0-3.099-1.387-3.099-3.099c0-1.712,1.387-3.099,3.099-3.099
				C375.968,172.631,377.355,174.018,377.355,175.73z"/>
			<path style="fill:#808080;stroke:#263238;stroke-linecap:round;stroke-linejoin:round;stroke-miterlimit:10;" d="M387.685,175.73
				c0,1.711-1.387,3.099-3.099,3.099c-1.711,0-3.099-1.387-3.099-3.099c0-1.712,1.387-3.099,3.099-3.099
				C386.298,172.631,387.685,174.018,387.685,175.73z"/>
		</g>
	</g>
</g>
</svg>
